<svg viewBox="0 0 24 24" xmlns="http://www.w3.org/2000/svg" xmlns:xlink="http://www.w3.org/1999/xlink" width="24.000000" height="24.000000" fill="none">
	<rect id="ic:round-delete" width="24.000000" height="24.000000" x="0.000000" y="0.000000" fill="rgb(255,255,255)" fill-opacity="0" />
	<path id="Vector" d="M6 19C6 20.1 6.9 21 8 21L16 21C17.1 21 18 20.1 18 19L18 9C18 7.9 17.1 7 16 7L8 7C6.9 7 6 7.9 6 9L6 19ZM18 4L15.5 4L14.79 3.29C14.61 3.11 14.35 3 14.09 3L9.91 3C9.65 3 9.39 3.11 9.21 3.29L8.5 4L6 4C5.45 4 5 4.45 5 5C5 5.55 5.45 6 6 6L18 6C18.55 6 19 5.55 19 5C19 4.45 18.55 4 18 4Z" fill="rgb(67.4279,67.4279,67.4279)" fill-rule="nonzero" />
</svg>
